<?xml version="1.0" encoding="utf-8"?>
<!-- Svg Vector Icons : http://www.onlinewebfonts.com/icon -->
<!DOCTYPE svg PUBLIC "-//W3C//DTD SVG 1.1//EN" "http://www.w3.org/Graphics/SVG/1.1/DTD/svg11.dtd">
<svg version="1.1" xmlns="http://www.w3.org/2000/svg" xmlns:xlink="http://www.w3.org/1999/xlink" x="0px" y="0px" viewBox="0 0 1000 1000" enable-background="new 0 0 1000 1000" xml:space="preserve">
<metadata> Svg Vector Icons : http://www.onlinewebfonts.com/icon </metadata>
<g><path d="M735.3,152.7c-4.4,0-8.8,0.1-13.1,0.3C671.1,67.5,577.6,10.1,470.7,10.1c-121.4,0-225.5,73.9-269.8,179.2C92,211.5,10,307.8,10,423.3C10,555.1,116.9,662,248.7,662c4.5,0,9-0.2,13.5-0.4v0.6h481.3l0.1-0.3C880.4,657.6,990,545.3,990,407.4C990,266.8,875.9,152.7,735.3,152.7z M729.4,570.4c-2.2,0-4.3-0.2-6.4-0.3H263.2c-4.2,0.4-8.5,0.6-12.8,0.6c-81.8,0-148-66.3-148-148s66.3-148,148-148c8,0,15.7,0.8,23.4,2c12.8-98.4,96.8-174.5,198.7-174.5c91.5,0,168.6,61.3,192.7,145.1c19.8-8.2,41.5-12.8,64.3-12.8c92.8,0,168,75.2,168,168C897.4,495.2,822.1,570.4,729.4,570.4z"/><path d="M586.7,590.3c19.7,0,35.8,16,35.8,35.8v113.6c0,19.8-16,35.8-35.8,35.8c-19.8,0-35.8-16-35.8-35.8V626.1C551,606.3,567,590.3,586.7,590.3z"/><path d="M679.9,608.5c9.9,17.1,4,39-13.1,48.9l-124.4,71.8c-17.2,9.9-39,4-48.9-13.1c-9.9-17.1-4-39,13.1-48.9L631,595.4C648.1,585.5,670,591.3,679.9,608.5z"/><path d="M493.4,608.5c-9.9,17.1-4,39,13.1,48.9l124.4,71.8c17.1,9.9,39,4,48.9-13.1c9.9-17.1,4-39-13.1-48.9l-124.4-71.8C525.2,585.5,503.3,591.3,493.4,608.5z"/><path d="M693.6,782.6c11.2,0,20.2,9,20.2,20.2v115.9c0,11.2-9.1,20.2-20.2,20.2c-11.2,0-20.2-9.1-20.2-20.2V802.8C673.4,791.6,682.5,782.6,693.6,782.6z"/><path d="M761.3,824c5.6,9.7,2.3,22-7.4,27.6l-100.4,58c-9.7,5.6-22.1,2.3-27.6-7.4c-5.6-9.7-2.3-22,7.4-27.6l100.4-58C743.3,811,755.7,814.3,761.3,824z"/><path d="M625.7,824c-5.6,9.7-2.3,22,7.4,27.6l100.4,58c9.7,5.6,22.1,2.3,27.6-7.4c5.6-9.7,2.3-22-7.4-27.6l-100.4-58C643.6,811,631.3,814.3,625.7,824z"/><path d="M479.7,833.5c11.2,0,20.2,9.1,20.2,20.2v115.9c0,11.2-9.1,20.2-20.2,20.2c-11.2,0-20.2-9.1-20.2-20.2V853.7C459.5,842.6,468.5,833.5,479.7,833.5z"/><path d="M547.3,875c5.6,9.7,2.3,22.1-7.4,27.6l-100.4,57.9c-9.7,5.6-22,2.3-27.6-7.4c-5.6-9.7-2.3-22.1,7.4-27.6l100.4-58C529.4,862,541.8,865.3,547.3,875z"/><path d="M411.7,875c-5.6,9.7-2.3,22.1,7.4,27.6l100.4,57.9c9.7,5.6,22.1,2.3,27.6-7.4c5.6-9.7,2.3-22.1-7.4-27.6l-100.3-58C429.7,862,417.3,865.3,411.7,875z"/><path d="M311.6,682.1c14.2,0,25.7,11.5,25.7,25.7v123.1c0,14.2-11.5,25.7-25.7,25.7c-14.2,0-25.7-11.5-25.7-25.7V707.8C285.9,693.7,297.4,682.1,311.6,682.1z"/><path d="M384.6,726.1c7.1,12.3,2.9,28-9.4,35.1l-101.8,61.2c-12.3,7.1-28,2.9-35.1-9.4c-7.1-12.3-2.9-28,9.4-35.1l101.8-61.2C361.8,709.6,377.5,713.8,384.6,726.1z"/><path d="M238.2,726.1c-7.1,12.3-2.9,28,9.4,35.1l101.8,61.2c12.3,7.1,28,2.9,35.1-9.4c7.1-12.3,2.9-28-9.4-35.1l-101.8-61.2C261,709.6,245.3,713.8,238.2,726.1z"/></g>
</svg>